<svg xmlns="http://www.w3.org/2000/svg" viewBox="0 0 64 64">
  <defs>
    <linearGradient id="pepperGrad" x1="0%" y1="0%" x2="100%" y2="100%">
      <stop offset="0%" stop-color="#ff2222"/>
      <stop offset="100%" stop-color="#8b0000"/>
    </linearGradient>
    <linearGradient id="leafGrad" x1="0%" y1="0%" x2="100%" y2="100%">
      <stop offset="0%" stop-color="#4ade80"/>
      <stop offset="100%" stop-color="#166534"/>
    </linearGradient>
  </defs>
  <!-- Tige -->
  <path d="M32 8 C32 8 31 5 33 3" fill="none" stroke="#166534" stroke-width="2" stroke-linecap="round"/>
  <!-- Feuille -->
  <path d="M32 8 C28 4 22 5 22 9 C22 13 28 12 32 8Z" fill="url(#leafGrad)"/>
  <!-- Corps du piment -->
  <path d="M32 8 C38 9 44 17 44 28 C44 38 40 47 36 53 C34 57 32 59 31 56 C30 53 27 47 26 40 C24 31 24 19 28 11 C29 9 30 8 32 8Z" fill="url(#pepperGrad)"/>
  <!-- Reflet -->
  <path d="M30 13 C28 20 27 29 28 38" fill="none" stroke="white" stroke-width="1.8" stroke-linecap="round" opacity="0.35"/>
</svg>